<?xml version="1.0" encoding="utf-8"?><svg viewBox="0 0 512 512" xmlns="http://www.w3.org/2000/svg" xmlns:xlink="http://www.w3.org/1999/xlink"><style>:root>svg{display:none}:root>svg:target{display:block}</style><svg id="add-file" data-name="Слой 1" viewBox="0 0 320.02 384" xmlns="http://www.w3.org/2000/svg"><defs><clipPath id="aclip-path" transform="translate(-144.99 -204)"><path class="acls-1" d="M144 204h322v384H144z"/></clipPath><style>.acls-1{fill:none}.acls-2{clip-path:url(#aclip-path)}</style></defs><path d="M54.88 104.05h146.37v22.5H54.88zM54.88 149.05h146.37v22.5H54.88z"/><g class="acls-2"><path d="M54.88 194.05h146.37v22.5H54.88z"/><path d="M441.73 452.07a79.18 79.18 0 00-40.62-21.73V204H196.58L145 255.59V534.9h165.31a79.64 79.64 0 10131.42-82.83zM204 228.36v34.69h-34.65zm-36.55 284V285.55h59V226.5h152.16v202.58a79.54 79.54 0 00-72.81 79.3c0 1.34 0 2.69.1 4zm258.33 36.37a57.1 57.1 0 110-80.79 56.76 56.76 0 010 80.79zm0 0" transform="translate(-144.99 -204)"/></g><path d="M396.68 478.36h-22.5v18.77h-18.77v22.5h18.77v18.76h22.5v-18.76h18.77v-22.5h-18.77zm0 0" transform="translate(-144.99 -204)"/></svg><svg data-name="Слой 1" viewBox="0 0 384 384" id="admin" xmlns="http://www.w3.org/2000/svg"><path d="M375.43 147.32l-35.26-8.65q-2.51-6.85-5.74-13.69l18.36-30.6a11.27 11.27 0 00-1.69-13.75L303.37 32.9a11.25 11.25 0 00-13.75-1.69L259 49.57q-6.82-3.24-13.69-5.74l-8.65-35.26A11.26 11.26 0 00225.75 0h-67.5a11.26 11.26 0 00-10.93 8.57l-8.65 35.26q-6.85 2.5-13.69 5.74L94.37 31.21a11.24 11.24 0 00-13.74 1.69L32.9 80.63a11.25 11.25 0 00-1.69 13.75L49.57 125q-3.24 6.82-5.74 13.69l-35.26 8.65A11.26 11.26 0 000 158.25v67.5a11.26 11.26 0 008.57 10.93l35.26 8.65q2.5 6.85 5.74 13.69l-18.36 30.61a11.24 11.24 0 001.69 13.74l47.73 47.73a11.24 11.24 0 0013.74 1.69L125 334.43q6.83 3.24 13.69 5.74l8.65 35.26a11.3 11.3 0 0010.91 8.57h67.5a11.3 11.3 0 0010.93-8.57l8.65-35.26q6.85-2.5 13.69-5.74l30.6 18.36a11.25 11.25 0 0013.75-1.69l47.73-47.73a11.26 11.26 0 001.69-13.74L334.43 259q3.24-6.82 5.74-13.69l35.26-8.65a11.26 11.26 0 008.57-10.91v-67.5a11.26 11.26 0 00-8.57-10.93zM152 201.36l33.75 22.5a11.25 11.25 0 0012.48 0l33.77-22.5a11.26 11.26 0 005-9.36v-64.64a78.75 78.75 0 11-90 0V192a11.26 11.26 0 005 9.36zm40 91.89a101.16 101.16 0 0022.5-2.52v70.77h-45v-70.77a101.16 101.16 0 0022.5 2.52zm169.5-76.32l-32.68 8a11.24 11.24 0 00-8 7.54 135 135 0 01-9.14 21.81 11.23 11.23 0 00.32 11l17 28.37L293.67 329l-28.37-17a11.25 11.25 0 00-11-.33 136.69 136.69 0 01-17.3 7.62v-36.61a101.26 101.26 0 00-7-184.54 11.25 11.25 0 00-15.48 10.43V186L192 201l-22.5-15v-77.43A11.25 11.25 0 00154 98.14a101.24 101.24 0 00-7 184.54v36.57a138.69 138.69 0 01-17.3-7.61 11.23 11.23 0 00-11 .32l-28.37 17L55 293.67l17-28.37a11.25 11.25 0 00.33-11 133.76 133.76 0 01-9.15-21.81 11.26 11.26 0 00-8-7.54l-32.68-8v-49.88l32.68-8a11.23 11.23 0 008-7.54 135 135 0 019.14-21.81 11.23 11.23 0 00-.32-11L55 90.35 90.33 55l28.36 17a11.27 11.27 0 0011 .33 133.7 133.7 0 0121.81-9.14 11.29 11.29 0 007.54-8.05l8-32.68h49.86l8 32.68a11.26 11.26 0 007.54 8 134.58 134.58 0 0121.81 9.14 11.23 11.23 0 0011-.32l28.37-17L329 90.33l-17 28.37a11.23 11.23 0 00-.32 11 134.58 134.58 0 019.14 21.81 11.26 11.26 0 008 7.54l32.68 8zm0 0"/></svg><svg data-name="Capa 1" viewBox="0 0 495.98 512" id="adv-1" xmlns="http://www.w3.org/2000/svg"><path d="M479.58 299.89h-7.66v-69a32.4 32.4 0 00-13.75-26.48V195a24.74 24.74 0 00-24.72-24.72h-5.72l21.89-32.12a23.65 23.65 0 00-6.22-32.83L294.87 4.11a23.63 23.63 0 00-32.83 6.22l-128.2 188.12H98.16l8.61-87.13a2.58 2.58 0 011.63-2.16 55.52 55.52 0 0027.05-22 2.58 2.58 0 012.43-1.16l56 5.53A7.3 7.3 0 00195.27 77l-56-5.53a17.09 17.09 0 00-16.17 7.83 40.72 40.72 0 01-19.85 16.2 17.07 17.07 0 00-11 14.39l-8.75 88.56h-9.3l13.61-137.8a9 9 0 019.88-8.11l113.08 11.17a7.3 7.3 0 101.43-14.52L99.13 38a23.66 23.66 0 00-25.84 21.21l-11 111.07H43.63A24.75 24.75 0 0018.91 195v6.41A32.47 32.47 0 00-.01 230.88v248.69A32.46 32.46 0 0032.42 512h407.07a32.47 32.47 0 0032.43-32.43v-69h7.66a16.42 16.42 0 0016.4-16.4V316.3a16.42 16.42 0 00-16.4-16.41zm-46.13-115A10.14 10.14 0 01443.58 195v3.71a32.42 32.42 0 00-4.09-.26h-30.95l9.25-13.58zM274.1 18.55a9 9 0 0112.56-2.38l148.53 101.22a9.05 9.05 0 012.38 12.61l-46.69 68.5h-11.2l22.89-33.59a17.06 17.06 0 00.79-18.09 40.77 40.77 0 01-4.89-25.16 17.06 17.06 0 00-7.38-16.38l-77-52.47a17.07 17.07 0 00-17.95-.88 40.81 40.81 0 01-25.15 4.61 17.28 17.28 0 00-16.55 7.35l-91.7 134.56h-11.2zm3.21 123.89a60.21 60.21 0 00-60 56h-37l86.14-126.33a2.61 2.61 0 012.14-1.11h.33a55.49 55.49 0 0034.29-6.34 2.58 2.58 0 012.67.17l77 52.47a2.59 2.59 0 011.13 2.43 55.43 55.43 0 006.64 34.22 2.6 2.6 0 01-.14 2.71l-28.52 41.79h-24.7a60.21 60.21 0 00-59.98-56.01zm45.35 56h-90.67a45.54 45.54 0 0190.7 0zM33.5 195a10.15 10.15 0 0110.13-10.13h17.25l-1.34 13.58h-26zm-18.91 35.88A17.86 17.86 0 0132.43 213h407.06a17.86 17.86 0 0117.84 17.84v20.24H14.59zm442.74 213.86H100.64a7.3 7.3 0 000 14.59h356.69v20.24a17.86 17.86 0 01-17.84 17.84H32.43a17.86 17.86 0 01-17.84-17.84v-20.24h39.34a7.3 7.3 0 100-14.59H14.59v-179h442.74v34.18h-69.34a55.38 55.38 0 00-49.77 31.18c0 .07-.07.13-.1.19l-.21.48a55.13 55.13 0 00-2.76 7.05 55.31 55.31 0 00-2.48 16.42 55.39 55.39 0 0055.32 55.32h69.37v34.18zm24.06-50.58a1.81 1.81 0 01-1.81 1.81h-91.59a40.79 40.79 0 01-35.82-21.34c-.31-.58-.61-1.16-.9-1.76a38 38 0 01-1.54-3.65 40.73 40.73 0 010-28c.45-1.24 1-2.46 1.54-3.65.29-.59.59-1.18.9-1.76a40.79 40.79 0 0135.82-21.33h91.62a1.82 1.82 0 011.81 1.81v77.87z"/><path d="M389.67 325.63a29.6 29.6 0 1029.6 29.6 29.64 29.64 0 00-29.6-29.6zm0 44.6a15 15 0 1115-15 15 15 0 01-15 15z"/></svg><svg data-name="Слой 1" viewBox="0 0 372 372" id="adv-2" xmlns="http://www.w3.org/2000/svg"><path d="M372 150V18a18 18 0 00-18-18H126a18 18 0 00-18 18v30.21c-2.08-.14-4.06-.21-6-.21a101.94 101.94 0 00-24 201v21a17.76 17.76 0 002.41 8.82A18 18 0 0072 294v48a30 30 0 0060 0v-48a18 18 0 00-8.41-15.18A17.76 17.76 0 00126 270v-21a102.26 102.26 0 0059.48-40.68l4.45 8.65a88.81 88.81 0 00-5.52 13.37L168 235.62v44.76l16.4 5.26a90.49 90.49 0 005.52 13.36l-7.87 15.29L213.69 346l15.31-7.93a88.92 88.92 0 0013.38 5.52l5.24 16.41h44.76l5.26-16.4a90.94 90.94 0 0013.36-5.52l15.3 7.92 31.64-31.64-7.87-15.36a88.5 88.5 0 005.52-13.38l16.41-5.24v-44.76l-16.4-5.26a91.39 91.39 0 00-5.52-13.36l7.92-15.3-31.64-31.65-15.36 7.88a89.36 89.36 0 00-13.38-5.52l-1.4-4.41H354a18 18 0 0018-18zm-246 18h39.39A66 66 0 11102 84a59.85 59.85 0 016 .34V150a18 18 0 0018 18zm-6 174a18 18 0 01-36 0v-48a6 6 0 016-6h24a6 6 0 016 6zm-6-72a6 6 0 01-6 6H96a6 6 0 01-6-6v-18.77a92.7 92.7 0 0024 0zm-12-30a90 90 0 010-180c1.9 0 3.9.1 6 .26v12c-2.05-.17-4.05-.27-6-.27a78 78 0 1075.77 96h12.28A90 90 0 01102 240zm100.21-72h41.56l-1.41 4.4a90.3 90.3 0 00-13.36 5.52l-15.3-7.87-16.7 16.71a101 101 0 005.21-18.76zm85.93 14.14l3.11.87a78.06 78.06 0 0116.75 6.92l2.81 1.57 13.19-6.77L343.27 204l-6.77 13.17 1.57 2.81a78.06 78.06 0 016.93 16.77l.87 3.1 14.13 4.53v27.24l-14.14 4.52-.87 3.11a77.64 77.64 0 01-6.92 16.75l-1.57 2.81 6.77 13.19L324 331.28l-13.17-6.78-2.83 1.57a78.06 78.06 0 01-16.75 6.93l-3.11.88-4.52 14.12h-27.24l-4.52-14.14-3.11-.87a77.64 77.64 0 01-16.75-6.92l-2.81-1.57-13.19 6.78L196.72 312l6.78-13.17-1.57-2.83a77.43 77.43 0 01-6.93-16.75l-.88-3.11-14.12-4.51v-27.25l14.14-4.53.87-3.1a77.64 77.64 0 016.92-16.75l1.57-2.81-6.78-13.19L216 184.73l13.17 6.77 2.81-1.57a77.55 77.55 0 0116.77-6.93l3.11-.87 4.52-14.13h27.24zM247.62 156H126a6 6 0 01-6-6V18a6 6 0 016-6h228a6 6 0 016 6v132a6 6 0 01-6 6zm0 0"/><path d="M318 24a29.66 29.66 0 00-28.3 39.56L263 79.12a23.73 23.73 0 00-32.2-1.57l-28.55-20.76a24 24 0 10-36.2 10.69l-15.61 40.57c-.16 0-.31-.05-.47-.05a18.21 18.21 0 1011.66 4.4l15.64-40.68a21.85 21.85 0 002.7.28 23.82 23.82 0 0015.17-5.55l28.55 20.76A24 24 0 10270 96a23.45 23.45 0 00-1-6.47l26.75-15.6A29.95 29.95 0 10318 24zM150 132a6 6 0 116-6 6 6 0 01-6 6zm30-72a12 12 0 1112-12 12 12 0 01-12 12zm66 48a12 12 0 1112-12 12 12 0 01-12 12zm72-36a18 18 0 1118-18 18 18 0 01-18 18zm0 0M288 132h12v12h-12zM312 132h12v12h-12zM336 132h12v12h-12zM288 108h60v12h-60zM60 150H48a54.06 54.06 0 0054 54v-12a42.05 42.05 0 01-42-42zm0 0M312 258h-12a30 30 0 01-30 30v12a42.06 42.06 0 0042-42zm0 0"/><path d="M204 258a66 66 0 1066-66 66.08 66.08 0 00-66 66zm66-54a54 54 0 11-54 54 54.06 54.06 0 0154-54zm0 0"/></svg><svg id="adv-3" data-name="Слой 1" viewBox="0 0 480 464" xmlns="http://www.w3.org/2000/svg"><defs><clipPath id="eclip-path" transform="translate(-66 -164)"><path class="ecls-1" d="M66 164h480v464H66z"/></clipPath><style>.ecls-1{fill:none}.cls-2{clip-path:url(#eclip-path)}</style></defs><path d="M506 164H170a40.05 40.05 0 00-40 40v312H74a8 8 0 00-8 8v16a40.05 40.05 0 0040 40h248.19v40a8 8 0 0012.8 6.4l27.2-20.4 27.2 20.4a8 8 0 004.8 1.6 8.12 8.12 0 003.59-.8 8 8 0 004.41-7.2v-40H442a40.05 40.05 0 0040-40V228h56a8 8 0 008-8v-16a40.05 40.05 0 00-40-40zM354.19 564H106a24 24 0 01-24-24v-8h272.19zm64 40L399 589.6a8 8 0 00-9.6 0L370.19 604v-89.35a24 24 0 004.64-.09 24.38 24.38 0 0038.53 0 24.06 24.06 0 004.8.09zm10.29-128.16a8 8 0 00-4.54 11 8.32 8.32 0 01-11.05 11.1 8 8 0 00-11 4.55 8.29 8.29 0 01-15.63 0 8 8 0 00-11-4.55 8.31 8.31 0 01-11-11.1 8 8 0 00-4.54-11 8.32 8.32 0 010-15.68 8 8 0 004.54-11 8.31 8.31 0 0111-11.11 8 8 0 0011-4.54 8.28 8.28 0 0115.63 0 8 8 0 0011 4.54 8.32 8.32 0 0111.05 11.1 8 8 0 004.54 11 8.33 8.33 0 010 15.68zM473.38 181c-.45.64-.85 1.32-1.27 2a40.36 40.36 0 00-2.3 4.24c-.36.8-.7 1.54-1 2.32a42.3 42.3 0 00-1.49 4.8c-.18.75-.42 1.47-.56 2.22A40.35 40.35 0 00466 204v336a23.6 23.6 0 01-31.81 22.53v-55.65a24 24 0 006.4-19.6 24.42 24.42 0 000-38.56 24.4 24.4 0 00-27.2-27.28 24.38 24.38 0 00-38.53 0 24.4 24.4 0 00-27.2 27.28 24.44 24.44 0 000 38.56 24.05 24.05 0 006.58 19.83V516H146V204a24 24 0 0124-24h304c-.22.31-.39.67-.62 1zM530 212h-48v-8a24 24 0 0148 0zm0 0" transform="translate(-66 -164)"/><path d="M264 64h32v16h-32zM184 64h64v16h-64zM160 104h160v16H160zM120 152h40v16h-40zM120 192h88v16h-88zM176 152h184v16H176zM224 192h136v16H224zM120 232h160v16H120zM120 272h136v16H120z"/></svg><svg id="adv-4" data-name="Слой 1" viewBox="0 0 360 360" xmlns="http://www.w3.org/2000/svg"><defs><clipPath id="fclip-path" transform="translate(-126 -216)"><path class="fcls-1" d="M126 216h360v360H126z"/></clipPath><style>.fcls-1{fill:none}.cls-2{clip-path:url(#fclip-path)}</style></defs><path d="M480 426a6 6 0 006-6v-48a6 6 0 00-6-6h-33.2a142.94 142.94 0 00-20-48.34l23.45-23.5a6 6 0 000-8.48l-33.9-33.9a6 6 0 00-8.48 0l-23.51 23.44a142.94 142.94 0 00-48.34-20V222a6 6 0 00-6-6H282a6 6 0 00-6 6v33.2a142.94 142.94 0 00-48.34 20l-23.5-23.45a6 6 0 00-8.48 0l-33.9 33.9a6 6 0 000 8.48l23.45 23.5a143.21 143.21 0 00-20 48.35H132a6 6 0 00-6 6v48a6 6 0 006 6h33.2a142.94 142.94 0 0020 48.34l-23.45 23.5a6 6 0 000 8.48l33.9 33.9a6 6 0 008.48 0l23.5-23.45a143.21 143.21 0 0048.35 20V570a6 6 0 006 6h48a6 6 0 006-6v-33.2a143.3 143.3 0 0048.32-20l49 49a30 30 0 0042.42-42.42l-48.95-49A143.3 143.3 0 00446.8 426zm-12.78 131.22a18 18 0 01-25.46 0L326.87 442.34a29.84 29.84 0 00-21.25-8.74 33.36 33.36 0 00-3.74.22 47.95 47.95 0 01-52-60l26.46 26.47a6 6 0 004.24 1.76H306a6 6 0 006-6v-25.51a6 6 0 00-1.76-4.24l-26.44-26.46a48 48 0 0160 52 30 30 0 008.51 25l114.91 114.92a18 18 0 010 25.46zm-106.4-148.8a18.09 18.09 0 01-5.07-15.09 60 60 0 00-85.41-61.26 6 6 0 00-1.65 9.65L300 373v17h-17l-31.31-31.31a6 6 0 00-9.65 1.65 60 60 0 0061.23 85.4 18.12 18.12 0 0115.09 5.08l30.86 30.86a96.06 96.06 0 1142.43-42.43zM435.93 419a130.85 130.85 0 01-17.84 46.67l-17.55-17.55a108.12 108.12 0 10-42.42 42.43l17.54 17.55A130.75 130.75 0 01329 526a6 6 0 00-5 5.88V564h-36v-32.16a6 6 0 00-5-5.91 130.77 130.77 0 01-52.62-21.8 6 6 0 00-7.69.66L200 527.5l-25.43-25.43 22.71-22.75a6 6 0 00.66-7.69A130.75 130.75 0 01176.1 419a6 6 0 00-5.94-5H138v-36h32.16a6 6 0 005.91-5 130.77 130.77 0 0121.8-52.62 6 6 0 00-.66-7.69L174.5 290l25.43-25.43 22.75 22.71a6 6 0 007.69.66A130.89 130.89 0 01283 266.1a6 6 0 005-5.94V228h36v32.16a6 6 0 005 5.91 130.63 130.63 0 0152.65 21.81 6 6 0 007.69-.67l22.75-22.71 25.43 25.43-22.71 22.75a6 6 0 00-.67 7.69A130.63 130.63 0 01435.93 373a6 6 0 005.91 5H474v36h-32.16a6 6 0 00-5.91 5zm0 0" transform="translate(-126 -216)"/><path d="M344.18 425.7a6 6 0 10-8.48 8.48l4.24 4.25a6 6 0 008.49-8.49zm0 0M429 527.52a6 6 0 008.49-8.48l-72.09-72.13a6 6 0 10-8.49 8.49zm0 0M450.25 548.73a6 6 0 008.48-8.48l-4.24-4.25a6 6 0 00-8.49 8.49zm0 0" transform="translate(-126 -216)"/></svg><svg data-name="Слой 1" viewBox="0 0 25.61 34.68" id="blank" xmlns="http://www.w3.org/2000/svg"><path d="M13.56 1.13l10.92 10.92h-7.19a3.73 3.73 0 01-3.73-3.73zm0 0"/><path d="M21.88 34.68H3.73A3.74 3.74 0 010 31V3.73A3.74 3.74 0 013.73 0H12v8.32a5.34 5.34 0 005.33 5.34h8.32V31a3.73 3.73 0 01-3.73 3.73zm0 0"/></svg><svg data-name="Слой 1" viewBox="0 0 384 338.81" id="briefcase" xmlns="http://www.w3.org/2000/svg"><path d="M372.75 67.78H271V45.43A45.48 45.48 0 00225.6 0h-67.2A45.48 45.48 0 00113 45.43v22.35H11.25A11.25 11.25 0 000 79v204.41a55.46 55.46 0 0055.41 55.4h273.18a55.47 55.47 0 0055.41-55.4V79a11.25 11.25 0 00-11.25-11.25zM217.53 214.59a25.53 25.53 0 11-51.06 0v-25.52h51.06zm11.25-48h-73.56A11.25 11.25 0 00144 177.82v20.43c-65.42-14.2-114.46-56.63-120.77-108H360.8c-6.31 51.34-55.35 93.77-120.77 108v-20.43a11.25 11.25 0 00-11.25-11.25zM135.47 45.43A23 23 0 01158.4 22.5h67.2a23 23 0 0122.93 22.93v22.35H135.47zm226 238a32.94 32.94 0 01-32.91 32.9H55.41a32.94 32.94 0 01-32.91-32.9V148.3a157.75 157.75 0 0034.94 35.59c24.52 18.38 54.44 31.15 87 37.45a48 48 0 0095.08 0c32.58-6.3 62.5-19.07 87-37.45a157.75 157.75 0 0034.98-35.59zm0 0"/></svg><svg data-name="Capa 1" viewBox="0 0 512 512" id="chat" xmlns="http://www.w3.org/2000/svg"><path d="M112 128h192a16 16 0 000-32H112a16 16 0 000 32zM240 192a16 16 0 000-32H112a16 16 0 000 32z"/><path d="M9.22 398.5A16.24 16.24 0 0016 400a16 16 0 0010.24-3.71L117.79 320H352a64.06 64.06 0 0064-64V64a64.06 64.06 0 00-64-64H64A64.06 64.06 0 000 64v320a16 16 0 009.22 14.5zM32 64a32 32 0 0132-32h288a32 32 0 0132 32v192a32 32 0 01-32 32H112a16 16 0 00-10.24 3.71L32 349.86z"/><path d="M448 128a16 16 0 000 32 32 32 0 0132 32v270.69l-54-43.2a16.09 16.09 0 00-10-3.49H192a32 32 0 01-32-32v-16a16 16 0 00-32 0v16a64.06 64.06 0 0064 64h218.37L486 508.51A16 16 0 00512 496V192a64.06 64.06 0 00-64-64z"/></svg><svg data-name="Слой 1" viewBox="0 0 384 382.5" id="connection" xmlns="http://www.w3.org/2000/svg"><path d="M318.43 202.5a33.75 33.75 0 100-22.5H232.5v-30h72.75a11.22 11.22 0 007.2-2.61L333 130.25A33.74 33.74 0 10318.61 113l-17.43 14.5H232.5V45h33.43a33.75 33.75 0 100-22.5H232.5V11.25A11.25 11.25 0 00221.25 0h-60A11.25 11.25 0 00150 11.25v16.41a166.49 166.49 0 00-45.3 18.7L93.14 34.8a11.26 11.26 0 00-15.91 0L34.8 77.23a11.26 11.26 0 000 15.91l11.56 11.56a166.49 166.49 0 00-18.7 45.3H11.25A11.25 11.25 0 000 161.25v60a11.25 11.25 0 0011.25 11.25h16.41a166.49 166.49 0 0018.7 45.3L34.8 289.36a11.26 11.26 0 000 15.91l42.43 42.43a11.26 11.26 0 0015.91 0l11.56-11.56a166.49 166.49 0 0045.3 18.7v16.41a11.25 11.25 0 0011.25 11.25h60a11.25 11.25 0 0011.25-11.25V360h33.43a33.75 33.75 0 100-22.5H232.5V255h68.68l17.43 14.52A33.82 33.82 0 10333 252.25l-20.57-17.14a11.22 11.22 0 00-7.2-2.61H232.5v-30zm31.82-22.5A11.25 11.25 0 11339 191.25 11.27 11.27 0 01350.25 180zm0-90A11.25 11.25 0 11339 101.25 11.27 11.27 0 01350.25 90zm-52.5-67.5a11.25 11.25 0 11-11.25 11.25 11.27 11.27 0 0111.25-11.25zm0 315a11.25 11.25 0 11-11.25 11.25 11.27 11.27 0 0111.25-11.25zm52.5-67.5A11.25 11.25 0 11339 281.25 11.27 11.27 0 01350.25 270zM210 267.66a77.73 77.73 0 01-18.75 2.34 78.75 78.75 0 010-157.5 77.73 77.73 0 0118.75 2.34zM172.5 360v-14.18a11.25 11.25 0 00-9.12-11.05 144.68 144.68 0 01-53.95-22.29 11.26 11.26 0 00-14.26 1.37l-10 10-26.51-26.51 10-10A11.26 11.26 0 0070 273.07a144.68 144.68 0 01-22.29-53.95 11.25 11.25 0 00-11-9.12H22.5v-37.5h14.18a11.25 11.25 0 0011-9.12A144.68 144.68 0 0170 109.43a11.27 11.27 0 00-1.37-14.26l-10-10 26.51-26.51 10 10A11.26 11.26 0 00109.43 70a144.68 144.68 0 0153.95-22.29 11.25 11.25 0 009.12-11V22.5H210v69.3a99.5 99.5 0 00-18.75-1.8 101.25 101.25 0 000 202.5 99.5 99.5 0 0018.75-1.8V360zm0 0"/></svg><svg viewBox="0 0 490.688 490.688" id="download" xmlns="http://www.w3.org/2000/svg"><path d="M472.328 120.529L245.213 347.665 18.098 120.529c-4.237-4.093-10.99-3.975-15.083.262-3.992 4.134-3.992 10.687 0 14.82l234.667 234.667c4.165 4.164 10.917 4.164 15.083 0l234.667-234.667c4.237-4.093 4.354-10.845.262-15.083-4.093-4.237-10.845-4.354-15.083-.262-.089.086-.176.173-.262.262l-.021.001z" fill="#fff"/><path d="M245.213 373.415a10.663 10.663 0 01-7.552-3.115L2.994 135.633c-4.093-4.237-3.975-10.99.262-15.083 4.134-3.992 10.687-3.992 14.82 0l227.136 227.115 227.115-227.136c4.093-4.237 10.845-4.354 15.083-.262 4.237 4.093 4.354 10.845.262 15.083-.086.089-.173.176-.262.262L252.744 370.279a10.672 10.672 0 01-7.531 3.136z" fill="#fff"/></svg><svg id="eye" data-name="Слой 1" viewBox="0 0 384 383.88" xmlns="http://www.w3.org/2000/svg"><defs><clipPath id="lclip-path" transform="translate(-114 -204.06)"><path class="lcls-1" d="M114 204h384v384H114z"/></clipPath><style>.lcls-1{fill:none}.lcls-2{clip-path:url(#lclip-path)}</style></defs><g class="lcls-2"><path d="M497 391.43c-74.23-153.32-308.45-152.54-382.06 0a11.28 11.28 0 000 9.14c74.21 153.29 308.37 152.64 382.06 0a11.28 11.28 0 000-9.14zM137.86 396c12.55-23.2 37.14-53.82 74.27-74.18C178 363 178 429 212.13 470.18c-37.2-20.39-61.76-51.06-74.27-74.18zM306 493.2a97.31 97.31 0 01-97.2-97.2c5.34-128.95 189.08-128.91 194.4 0a97.31 97.31 0 01-97.2 97.2zm93.87-23C434 429 434 363 399.87 321.82c37.2 20.39 61.76 51.06 74.27 74.18-12.55 23.2-37.14 53.82-74.27 74.18zm0 0" transform="translate(-114 -204.06)"/><path d="M306 250.6a11.25 11.25 0 0011.25-11.25v-24.1c-.59-14.93-21.91-14.91-22.5 0v24.1A11.25 11.25 0 00306 250.6zm0 0M306 541.4a11.25 11.25 0 00-11.25 11.25v24.1c.59 14.93 21.91 14.91 22.5 0v-24.1A11.25 11.25 0 00306 541.4zm0 0" transform="translate(-114 -204.06)"/></g><path d="M165.5 271.41a11.25 11.25 0 1015.91-15.91l-17-17a11.25 11.25 0 00-15.91 15.91zm0 0M165.5 520.59l-17 17a11.25 11.25 0 1015.91 15.91l17-17a11.25 11.25 0 00-15.91-15.91zm0 0M446.5 271.41l17-17a11.25 11.25 0 10-15.91-15.91l-17 17a11.25 11.25 0 1015.91 15.91zm0 0M446.5 520.59a11.25 11.25 0 00-15.91 15.91l17 17a11.25 11.25 0 1015.91-15.91zm0 0M306 348.6a47.45 47.45 0 00-47.4 47.4c2.6 62.88 92.2 62.86 94.8 0a47.45 47.45 0 00-47.4-47.4zm0 72.3a24.93 24.93 0 01-24.9-24.9c1.37-33 48.44-33 49.8 0a24.93 24.93 0 01-24.9 24.9zm0 0" transform="translate(-114 -204.06)"/></svg><svg data-name="Capa 1" viewBox="0 0 256 512" id="fb" xmlns="http://www.w3.org/2000/svg"><path d="M160 176v-64a32 32 0 0132-32h32V0h-64a96 96 0 00-96 96v80H0v80h64v256h96V256h64l32-80z"/></svg><svg data-name="Слой 1" viewBox="0 0 360 312" id="hero-2" xmlns="http://www.w3.org/2000/svg"><path d="M342 90h-12a6 6 0 00-6 6v54h-12V90a18.05 18.05 0 00-18-18h-36V48h60a6 6 0 006-6V30a30 30 0 00-30-30H174a30 30 0 00-30 30v12a6 6 0 006 6h60v24h-47.4a5.66 5.66 0 00-3.42 1.08l-59 40.92H66a18.05 18.05 0 00-18 18v78H36v-54a6 6 0 00-6-6H18a18.05 18.05 0 00-18 18v120a18.05 18.05 0 0018 18h12a6 6 0 006-6v-54h12v48a18.05 18.05 0 0018 18h166.2a18 18 0 0016.44-10.68L267.9 258H306a6 6 0 006-6v-66h12v54a6 6 0 006 6h12a18.05 18.05 0 0018-18V108a18.05 18.05 0 00-18-18zM24 294h-6a6 6 0 01-6-6V168a6 6 0 016-6h6zm24-60H36v-12h12zM156 36v-6a18.05 18.05 0 0118-18h120a18.05 18.05 0 0118 18v6zm90 12v24h-24V48zm54 198h-36a5.92 5.92 0 00-5.46 3.54l-20.88 46.92a6 6 0 01-5.46 3.54H66a6 6 0 01-6-6V132a6 6 0 016-6h36a5.91 5.91 0 003.42-1.08l59-40.92H294a6 6 0 016 6zm24-72h-12v-12h12zm24 54a6 6 0 01-6 6h-6V102h6a6 6 0 016 6zm0 0"/><path d="M150 174a30 30 0 1030 30 30 30 0 00-30-30zm0 48a18 18 0 1118-18 18 18 0 01-18 18zm0 0"/><path d="M270.72 162.66l-14.4-1.86 8.94-11.46a6 6 0 00-.48-7.92l-16.2-16.2a6 6 0 00-7.92-.48l-11.46 8.94-1.86-14.4a6 6 0 00-5.94-5.28h-22.8a6 6 0 00-5.94 5.28l-1.86 14.4-11.46-8.94a6 6 0 00-7.92.48L158.7 138h-20.1a6 6 0 00-5.94 5.28l-1.86 14.4-11.46-8.94a6 6 0 00-7.92.48l-16.2 16.2a6 6 0 00-.48 7.92l8.94 11.46-14.4 1.86A6 6 0 0084 192.6v22.8a6 6 0 005.28 5.94l14.4 1.86-8.94 11.4a6.11 6.11 0 00.48 8l16.2 16.2a6 6 0 007.92.48l11.46-8.94 1.86 14.4a6 6 0 005.94 5.26h22.8a6 6 0 005.94-5.28l1.86-14.4 11.46 8.94a6 6 0 007.92-.48L201.3 246h20.1a6 6 0 005.94-5.28l1.86-14.4 11.46 8.94a6 6 0 007.92-.48l16.2-16.2a6 6 0 00.48-7.92l-8.94-11.46 14.4-1.86a6 6 0 005.28-5.94v-22.8a6 6 0 00-5.28-5.94zm-86.88 83.88l-11.34-8.82a5.89 5.89 0 00-6.24-.66 26.29 26.29 0 01-4.2 1.68 6.1 6.1 0 00-4.14 5l-1.8 14.26h-12.24l-1.8-14.28a6.1 6.1 0 00-4.14-5 26.29 26.29 0 01-4.2-1.68 5.89 5.89 0 00-6.24.66l-11.34 8.82-8.7-8.7 8.82-11.34a5.89 5.89 0 00.66-6.24 25.38 25.38 0 01-1.68-4.2 6.1 6.1 0 00-5-4.14L96 210.12v-12.24l14.28-1.8a6.1 6.1 0 005-4.14 25.38 25.38 0 011.68-4.2 5.89 5.89 0 00-.66-6.24l-8.82-11.34 8.7-8.7 11.34 8.82a5.89 5.89 0 006.24.66 26.29 26.29 0 014.2-1.68 6.1 6.1 0 004.14-5l1.8-14.28h12.06l2 14.34a6 6 0 004.14 4.92 26.29 26.29 0 014.2 1.68 5.88 5.88 0 006.3-.72l11.28-8.76 8.7 8.7-8.82 11.34a5.89 5.89 0 00-.66 6.24 26.29 26.29 0 011.68 4.2 6.1 6.1 0 005 4.14l14.28 1.8v12.24l-14.28 1.8a6.57 6.57 0 00-5 4.38l-.3 1c-.42 1.08-.9 2-1.32 3a5.89 5.89 0 00.66 6.24l8.82 11.34zm20.94-81.12l-1.92-1.92A18 18 0 11216 196.92v-4.32a6 6 0 00-5.28-5.94l-14.4-1.86 8.94-11.46a6 6 0 00-.48-7.92zm59.22 20.7l-14.28 1.8a6.1 6.1 0 00-5 4.14 26.29 26.29 0 01-1.68 4.2 5.89 5.89 0 00.66 6.24l8.82 11.34-8.7 8.7-11.34-8.82a6 6 0 00-6.24-.66 26.29 26.29 0 01-4.2 1.68 6.1 6.1 0 00-4.14 5L216.12 234h-11.34l-8.46-10.8 14.4-1.86a6 6 0 005.28-5.94v-6a30 30 0 10-22-54.78l-5.4-5.4a6 6 0 00-7.92-.48l-11.52 8.94-1.62-11.52 8.64-8.7 11.34 8.82a5.89 5.89 0 006.24.66 26.29 26.29 0 014.2-1.68 6.1 6.1 0 004.14-5l1.8-14.28h12.24l1.8 14.28a6.1 6.1 0 004.14 5 26.29 26.29 0 014.2 1.68 5.89 5.89 0 006.24-.66l11.34-8.82 8.7 8.7-8.82 11.34a5.89 5.89 0 00-.66 6.24 26.29 26.29 0 011.68 4.2 6.1 6.1 0 005 4.14l14.28 1.8zm0 0M276 96h12v12h-12zM252 96h12v12h-12zM72 276h12v12H72zM96 276h12v12H96z"/></svg><svg data-name="Capa 1" viewBox="0 0 480 320" id="hero-3" xmlns="http://www.w3.org/2000/svg"><path d="M461.66 130.34A8 8 0 00456 128h-24a8 8 0 00-8 8v40h-16v-56a8 8 0 00-8-8h-51.72l-29.6-44.44A8 8 0 00312 64h-48V48h56a8 8 0 008-8V8a8 8 0 00-8-8H160a8 8 0 00-8 8v32a8 8 0 008 8h56v16h-48a8 8 0 00-6.66 3.56L131.72 112H88a8 8 0 00-8 8v48H64v-48a8 8 0 00-8-8H24a8 8 0 00-6.66 3.56l-16 24A8.07 8.07 0 000 144v24a8.07 8.07 0 001.34 4.44L16 194.4V264a8 8 0 008 8h32a8 8 0 008-8v-48h16v48a8 8 0 008 8h43.72l29.6 44.44A8 8 0 00168 320h232a8 8 0 008-8v-72h16v56a8 8 0 008 8h24a8 8 0 005.66-2.34l16-16A8 8 0 00480 280V152a8 8 0 00-2.34-5.66zM48 176v80H32v-64a8.07 8.07 0 00-1.34-4.44L16 165.6v-19.2L28.28 128H48zm32 24H64v-16h16zm88-168V16h144v16zm80 16v16h-16V48zm112 256H172.28l-29.6-44.44A8 8 0 00136 256H96V128h40a8 8 0 006.66-3.56L172.28 80h135.44l29.6 44.44A8 8 0 00344 128h16zm32-120v120h-16V128h16zm32 40h-16v-32h16zm40 52.69L452.69 288H440V144h12.69L464 155.31z"/><path d="M304 176h-38l13.83-62.26a8 8 0 00-13.22-7.64l-96 88A8 8 0 00176 208h38l-13.83 62.26a8 8 0 0013.22 7.64l96-88A8 8 0 00304 176zm-82.68 72.94l10.49-47.2a8 8 0 00-6.08-9.55A7.71 7.71 0 00224 192h-27.43l62.11-56.94-10.49 47.2a8 8 0 006.08 9.55 7.71 7.71 0 001.73.19h27.43zM112 176h16v64h-16zM112 144h16v16h-16z"/></svg><svg data-name="Capa 1" viewBox="0 0 480 480" id="hero-4" xmlns="http://www.w3.org/2000/svg"><path d="M296 280h-8.8a7.87 7.87 0 01-7.41-5.17c-1-2.56-2-5.06-3.15-7.54a7.9 7.9 0 011.6-8.93l6.27-6.28a24 24 0 000-33.91l-22.61-22.61a24.05 24.05 0 00-33.92 0l-6.27 6.26a7.9 7.9 0 01-8.93 1.6c-2.48-1.12-5-2.17-7.55-3.2a7.87 7.87 0 01-5.23-7.42V184a24 24 0 00-24-24h-32a24 24 0 00-24 24v8.8a7.87 7.87 0 01-5.17 7.41c-2.56 1-5.06 2-7.54 3.15a7.91 7.91 0 01-8.93-1.6l-6.28-6.27a24.06 24.06 0 00-33.91 0l-22.61 22.68a24.05 24.05 0 000 33.92l6.26 6.27a7.86 7.86 0 011.6 8.93c-1.12 2.48-2.17 5-3.16 7.55A7.85 7.85 0 0132.8 280H24a24 24 0 00-24 24v32a24 24 0 0024 24h8.8a7.87 7.87 0 017.41 5.17c1 2.56 2 5.06 3.15 7.54a7.9 7.9 0 01-1.6 8.93l-6.27 6.28a24.06 24.06 0 000 33.91l22.61 22.61a24.05 24.05 0 0033.92 0l6.27-6.26a7.9 7.9 0 018.93-1.6c2.48 1.12 5 2.17 7.55 3.2a7.85 7.85 0 015.23 7.42v8.8a24 24 0 0024 24h32a24 24 0 0024-24v-8.8a7.87 7.87 0 015.17-7.41c2.56-1 5.06-2 7.54-3.15a7.91 7.91 0 018.93 1.6l6.28 6.27a24.06 24.06 0 0033.91 0l22.61-22.61a24.05 24.05 0 000-33.92l-6.26-6.27a7.86 7.86 0 01-1.6-8.93c1.12-2.48 2.17-5 3.2-7.55a7.87 7.87 0 017.42-5.23h8.8a24 24 0 0024-24v-32a24 24 0 00-24-24zm8 56a8 8 0 01-8 8h-8.8a24.08 24.08 0 00-22.4 15.47q-1.28 3.36-2.75 6.62a24.06 24.06 0 004.8 26.85l6.25 6.26a8 8 0 010 11.31l-22.6 22.61a8 8 0 01-11.32 0l-6.27-6.27a24.05 24.05 0 00-26.85-4.8c-2.16 1-4.37 1.91-6.6 2.76A24.06 24.06 0 00184 447.2v8.8a8 8 0 01-8 8h-32a8 8 0 01-8-8v-8.8a24.08 24.08 0 00-15.47-22.4q-3.36-1.28-6.62-2.75a24.09 24.09 0 00-26.85 4.8l-6.26 6.25a8 8 0 01-11.31 0l-22.62-22.58a8 8 0 010-11.31l6.27-6.27a24.09 24.09 0 004.8-26.85c-1-2.17-1.91-4.38-2.76-6.6A24.06 24.06 0 0032.8 344H24a8 8 0 01-8-8v-32a8 8 0 018-8h8.8a24.08 24.08 0 0022.4-15.47q1.27-3.36 2.75-6.62a24.06 24.06 0 00-4.8-26.85l-6.29-6.26a8 8 0 010-11.31l22.61-22.61a8 8 0 0111.31 0l6.28 6.27a24 24 0 0026.84 4.8c2.17-1 4.38-1.91 6.6-2.76A24 24 0 00136 192.8V184a8 8 0 018-8h32a8 8 0 018 8v8.8a24.08 24.08 0 0015.47 22.4q3.36 1.28 6.62 2.75a24.05 24.05 0 0026.85-4.8l6.26-6.25a8 8 0 0111.32 0l22.61 22.6a8 8 0 010 11.32l-6.27 6.27a24.09 24.09 0 00-4.8 26.85c1 2.16 1.91 4.37 2.76 6.6A24.06 24.06 0 00287.2 296h8.8a8 8 0 018 8z"/><path d="M231.84 316.8c-.08-1.92-.22-3.83-.45-5.74s-.56-4.08-1-6.07c-.28-1.3-.65-2.59-1-3.89-.45-1.64-.95-3.27-1.51-4.87-.4-1.11-.8-2.21-1.22-3.31a72 72 0 00-3.53-7.49c-.1-.18-.17-.38-.27-.57a70.8 70.8 0 00-7.2-10.48c-.23-.29-.5-.56-.74-.84q-1.65-2-3.43-3.78c-.62-.65-1.28-1.26-1.93-1.88-.8-.74-1.6-1.48-2.4-2.18-1-.85-2-1.66-3-2.45l-1.31-1A71.49 71.49 0 00160 248c-.8 0-1.6.12-2.4.15-1.7.05-3.42.15-5.14.32-.9.1-1.81.2-2.72.33a73.38 73.38 0 00-7.75 1.45 72 72 0 00.06 139.51 2 2 0 01.4.07 74.58 74.58 0 008.38 1.6c1.87.23 3.73.28 5.6.37 1.25.06 2.4.25 3.71.25 2.28 0 4.64-.15 7.06-.39.26 0 .51-.08.8-.11 1.94-.21 3.91-.5 5.92-.9.8-.15 1.54-.35 2.31-.53 1.41-.33 2.81-.67 4.25-1.1 1.12-.33 2.21-.72 3.3-1.11s2.24-.8 3.37-1.23 2.09-.93 3.12-1.41c1.35-.61 2.68-1.22 4-1.94a94.66 94.66 0 0020.5-14.81 24.89 24.89 0 004.29-5.25 85.25 85.25 0 0012-32.88c.22-1.54.42-3.09.54-4.66s.2-2.89.23-4.33c0-.46.06-.89.06-1.34.11-1.13 0-2.17-.05-3.26zm-85.9-51A58 58 0 01160 264a55.86 55.86 0 016.84.46c.61.08 1.21.19 1.81.28 1.73.27 3.44.61 5.13 1l1.64.43a56.62 56.62 0 0112.2 5.13c.62.36 1.22.74 1.83 1.12 1.26.8 2.49 1.6 3.69 2.51.65.47 1.31.93 1.93 1.44a57 57 0 014.51 4c.56.57 1.08 1.21 1.64 1.81.92 1 1.81 2 2.67 3.1.59.74 1.16 1.51 1.72 2.29.8 1.15 1.6 2.35 2.32 3.57l1.21 2a54.83 54.83 0 012.75 5.86c.32.8.59 1.6.88 2.4.52 1.47 1 3 1.36 4.47.2.8.42 1.51.59 2.28a55.9 55.9 0 011 6.56c0 .58 0 1.17.08 1.76a53.82 53.82 0 01.08 5.54c0 .66-.06 1.33-.1 2a60.83 60.83 0 01-.72 5.82A56.14 56.14 0 01187 369c-1 .52-2 1-2.95 1.46l-.66.32a57.71 57.71 0 01-14.59 4.41l-1.07.17c-1 .14-2 .26-3 .35-1.29.11-2.59.18-3.91.2h-1.67a56.38 56.38 0 01-5.66-.35l-1-.11a60.27 60.27 0 01-6.54-1.23 56 56 0 01-.06-108.49zM456 168h-25.16a7.82 7.82 0 01-7.46-5.25 166.74 166.74 0 00-9-21.69 7.82 7.82 0 011.54-9l17.84-17.86a24 24 0 000-33.93l-34-34a24 24 0 00-33.93 0L348 64.1a7.82 7.82 0 01-9 1.55 165.19 165.19 0 00-21.7-9 7.82 7.82 0 01-5.3-7.49V24a24 24 0 00-24-24h-48a24 24 0 00-24 24v25.16a7.82 7.82 0 01-5.25 7.46 167 167 0 00-21.69 9 7.82 7.82 0 01-9-1.54l-17.89-17.82a24.06 24.06 0 00-33.93 0l-33.95 34a24 24 0 000 33.93l26.23 26.28a8 8 0 0011.33-11.29l-26.25-26.32a8 8 0 010-11.31l34-33.95a8 8 0 0111.31 0l17.88 17.84A23.78 23.78 0 00196.22 80a151.21 151.21 0 0119.61-8.15A23.8 23.8 0 00232 49.16V24a8 8 0 018-8h48a8 8 0 018 8v25.16a23.78 23.78 0 0016.17 22.63A150.68 150.68 0 01331.78 80a23.83 23.83 0 0027.48-4.52l17.88-17.88a8 8 0 0111.31 0l33.95 34a8 8 0 010 11.3l-17.84 17.88a23.79 23.79 0 00-4.51 27.48 151.21 151.21 0 018.15 19.61A23.8 23.8 0 00430.84 184H456a8 8 0 018 8v48a8 8 0 01-8 8h-25.16a23.78 23.78 0 00-22.63 16.17 150.68 150.68 0 01-8.16 19.61 23.79 23.79 0 004.52 27.48l17.84 17.88a8 8 0 010 11.31l-34 33.95a8 8 0 01-11.3 0l-26.29-26.23a8 8 0 10-11.49 11.13l.19.2 26.28 26.23a24 24 0 0033.93 0l33.95-34a24 24 0 000-33.93L415.9 300a7.83 7.83 0 01-1.55-9 165.19 165.19 0 009-21.7 7.82 7.82 0 017.46-5.28H456a24 24 0 0024-24V192a24 24 0 00-24-24z"/><path d="M337.54 142.46a104.12 104.12 0 00-147.08 0 8.004 8.004 0 0011.32 11.32 88 88 0 11125.28 123.61l-.84.83a8.002 8.002 0 0011.12 11.51l.2-.19a104.12 104.12 0 000-147.08z"/></svg><svg data-name="Слой 1" viewBox="0 0 409.6 409.6" id="inst" xmlns="http://www.w3.org/2000/svg"><path d="M298.73 0H110.87A111 111 0 000 110.88v187.85A111 111 0 00110.87 409.6h187.86A111 111 0 00409.6 298.73V110.88A111 111 0 00298.73 0zM204.8 316.8a112 112 0 11112-112 112.13 112.13 0 01-112 112zm114.68-197.58a33.1 33.1 0 1133.09-33.1 33.14 33.14 0 01-33.09 33.1zm0 0"/><path d="M204.8 116.82a88 88 0 1088 88 88.08 88.08 0 00-88-88zm0 0M319.48 77a9.08 9.08 0 109.08 9.08 9.1 9.1 0 00-9.08-9.08zm0 0"/></svg><svg data-name="Capa 1" viewBox="0 0 512 360" id="mail" xmlns="http://www.w3.org/2000/svg"><path d="M507.49 25.72L352.21 180l155.28 154.28A44.44 44.44 0 00512 315V45a44.44 44.44 0 00-4.51-19.28zM287.82 202L486.28 4.51A44.44 44.44 0 00467 0H45a44.44 44.44 0 00-19.28 4.51L224.18 202a45 45 0 0063.64 0zM4.51 25.72A44.44 44.44 0 000 45v270a44.44 44.44 0 004.51 19.28L159.79 180z"/><path d="M309 223.18a75.08 75.08 0 01-106.06 0l-22-22L25.72 355.49A44.44 44.44 0 0045 360h422a44.44 44.44 0 0019.28-4.51L331 201.21z"/></svg><svg id="maintenance" data-name="Слой 1" viewBox="0 0 384 383.7" xmlns="http://www.w3.org/2000/svg"><defs><clipPath id="sclip-path" transform="translate(-114 -204.15)"><path class="scls-1" d="M114 204h384v384H114z"/></clipPath><style>.scls-1{fill:none}.cls-2{clip-path:url(#sclip-path)}</style></defs><path d="M348.91 378.63l34.89-34.88 34.75 34.75L498 246.09l-37.73-37.73-132.41 79.45 34.75 34.75-34.88 34.89-11-11a104.74 104.74 0 00-97.89-142.31c-33.18 0-51.59 14.37-64.09 19.41l54.3 54.3-3.16 18.2-18.2 3.16-54.3-54.3c-5 12.48-19.41 30.9-19.41 64.1a104.86 104.86 0 00137.77 99.63l12.4 12.36-17.74 17.74a45 45 0 00-51.14 8.77l-63.56 63.55a44.94 44.94 0 1063.56 63.56l63.55-63.56a44.92 44.92 0 008.79-51.16l17.73-17.71 132.52 132.54a44.89 44.89 0 0063.43 0 45.12 45.12 0 000-63.73zm106.72-132.54l4.64 4.64-47.66 79.45-36.43-36.42zm-218 243.82l-63.56 63.55a15 15 0 01-21.19-21.18l63.56-63.56a15 15 0 0121.19 21.19zm222.47 63.64a14.92 14.92 0 01-21.06 0l-180.4-180.4-9.48 4.35C201.74 399.29 144 364.36 144 309a77.37 77.37 0 01.71-10.47l32.85 32.85 54.3-9.43 9.43-54.3-32.89-32.83a77.33 77.33 0 0110.46-.71c55.8 0 92.1 59.18 66.67 108.82l-5 9.72L460.1 532.18a15.32 15.32 0 010 21.37zm0 0" transform="translate(-114 -204.15)"/></svg><svg viewBox="0 0 512 512" id="mobile-phone" xmlns="http://www.w3.org/2000/svg"><path d="M370.2 498.2H141.8c-15.3 0-27.7-12.4-27.7-27.7v-429c0-15.3 12.4-27.7 27.7-27.7h228.3c15.3 0 27.7 12.4 27.7 27.7v429c0 15.3-12.4 27.7-27.6 27.7zM141.8 27.7c-7.6 0-13.8 6.2-13.8 13.8v429c0 7.6 6.2 13.8 13.8 13.8h228.3c7.6 0 13.8-6.2 13.8-13.8v-429c0-7.6-6.2-13.8-13.8-13.8H141.8z"/><path d="M390.9 89.9H121.1c-3.8 0-6.9-3.1-6.9-6.9 0-3.8 3.1-6.9 6.9-6.9h269.8c3.8 0 6.9 3.1 6.9 6.9 0 3.8-3.1 6.9-6.9 6.9zM390.9 408.2H121.1c-3.8 0-6.9-3.1-6.9-6.9 0-3.8 3.1-6.9 6.9-6.9h269.8c3.8 0 6.9 3.1 6.9 6.9 0 3.8-3.1 6.9-6.9 6.9zM256 471.8c-14.1 0-25.5-11.4-25.5-25.5s11.4-25.5 25.5-25.5 25.5 11.4 25.5 25.5-11.4 25.5-25.5 25.5zm0-37.2c-6.5 0-11.7 5.2-11.7 11.7 0 6.5 5.2 11.7 11.7 11.7 6.5 0 11.7-5.2 11.7-11.7 0-6.5-5.3-11.7-11.7-11.7zM283.7 60.5h-55.4c-3.8 0-6.9-3.1-6.9-6.9s3.1-6.9 6.9-6.9h55.4c3.8 0 6.9 3.1 6.9 6.9s-3.1 6.9-6.9 6.9z"/></svg><svg version="1.1" id="old-typical-phone" x="0" y="0" viewBox="0 0 51.4 51.4" xml:space="preserve" xmlns="http://www.w3.org/2000/svg"><style>.ust0{fill:#010002}</style><path class="ust0" d="M26 12.3c8.7.1 14.1-.5 14.8 9.1h10.6c0-14.9-13-16.9-25.7-16.9S.1 6.5.1 21.4h10.5c.7-9.8 6.8-9.2 15.4-9.1zM5.3 26.2c2.6 0 4.7.2 5.2-2.4.1-.3.1-.7.1-1.2H0c0 3.8 2.4 3.6 5.3 3.6zM40.9 22.6c-.1.5-.1.8 0 1.2.5 2.3 2.6 2.2 5.2 2.2 2.9 0 5.3.2 5.3-3.4H40.9z"/><path class="ust0" d="M35.7 20.1v-1.5c0-.7-.8-.7-1.7-.7h-1.6c-1 0-1.7 0-1.7.7v2.3h-11v-2.3c0-.7-.8-.7-1.7-.7h-1.6c-1 0-1.7 0-1.7.7v2.8C12.2 24 4 35.1 3.7 36.4v9c0 .8.7 1.5 1.5 1.5h40c.8 0 1.5-.7 1.5-1.5v-9c-.3-1.3-8.5-12.4-11-15v-1.3zM19.2 37.6c-.8 0-1.5-.7-1.5-1.5s.7-1.5 1.5-1.5 1.5.7 1.5 1.5-.7 1.5-1.5 1.5zm0-5c-.8 0-1.5-.7-1.5-1.5s.7-1.5 1.5-1.5 1.5.7 1.5 1.5-.7 1.5-1.5 1.5zm0-5c-.8 0-1.5-.7-1.5-1.5s.7-1.5 1.5-1.5 1.5.7 1.5 1.5c-.1.9-.7 1.5-1.5 1.5zm6 10c-.8 0-1.5-.7-1.5-1.5s.7-1.5 1.5-1.5 1.5.7 1.5 1.5-.7 1.5-1.5 1.5zm0-5c-.8 0-1.5-.7-1.5-1.5s.7-1.5 1.5-1.5 1.5.7 1.5 1.5-.7 1.5-1.5 1.5zm0-5c-.8 0-1.5-.7-1.5-1.5s.7-1.5 1.5-1.5 1.5.7 1.5 1.5c-.1.9-.7 1.5-1.5 1.5zm6 10c-.8 0-1.5-.7-1.5-1.5s.7-1.5 1.5-1.5 1.5.7 1.5 1.5-.7 1.5-1.5 1.5zm0-5c-.8 0-1.5-.7-1.5-1.5s.7-1.5 1.5-1.5 1.5.7 1.5 1.5-.7 1.5-1.5 1.5zm0-5c-.8 0-1.5-.7-1.5-1.5s.7-1.5 1.5-1.5 1.5.7 1.5 1.5c-.1.9-.7 1.5-1.5 1.5z"/></svg><svg data-name="Слой 1" viewBox="0 0 370.5 384" id="pdf" xmlns="http://www.w3.org/2000/svg"><path d="M89.05 156.75h-23.8A11.25 11.25 0 0054 168l.16 85.46a11.25 11.25 0 0022.5 0v-25.91c4.61 0 9.52-.05 12.39-.05 19.77 0 35.86-15.87 35.86-35.37s-16.09-35.38-35.86-35.38zm0 48.25c-2.9 0-7.83 0-12.45.05v-12.92-12.88h12.52c7.24 0 13.35 5.9 13.35 12.88S96.29 205 89.05 205zm0 0M184.75 156.75h-23.5A11.25 11.25 0 00150 168l.17 83a11.23 11.23 0 0011.25 11.21c.71 0 17.47-.06 24.17-.18 25.42-.44 43.87-22.54 43.87-52.55 0-31.54-18-52.73-44.75-52.73zm.49 82.79c-2.92 0-7.93.09-12.61.12 0-9.77-.09-50.25-.11-60.41h12.23c20.65 0 22.25 23.14 22.25 30.23 0 14.77-6.73 29.79-21.76 30.06zm0 0M303.65 178.38a11.25 11.25 0 000-22.5h-34.4A11.25 11.25 0 00258 167.13V252a11.25 11.25 0 0022.5 0v-32h20.41a11.25 11.25 0 100-22.5H280.5v-19.12zm0 0"/><path d="M336.75 108.75h-8.25v-3.21a56 56 0 00-15.43-38.7l-46.73-49.29A56.49 56.49 0 00225.52 0H75.75A33.79 33.79 0 0042 33.75v75h-8.25A33.79 33.79 0 000 142.5v135a33.79 33.79 0 0033.75 33.75H42v39A33.79 33.79 0 0075.75 384h219a33.79 33.79 0 0033.75-33.75v-39h8.25a33.79 33.79 0 0033.75-33.75v-135a33.79 33.79 0 00-33.75-33.75zm-272.25-75A11.27 11.27 0 0175.75 22.5h149.77A33.93 33.93 0 01250 33l46.72 49.29a33.62 33.62 0 019.28 23.25v3.21H64.5zM306 350.25a11.27 11.27 0 01-11.25 11.25h-219a11.27 11.27 0 01-11.25-11.25v-39H306zm42-72.75a11.27 11.27 0 01-11.25 11.25h-303A11.27 11.27 0 0122.5 277.5v-135a11.27 11.27 0 0111.25-11.25h303A11.27 11.27 0 01348 142.5zm0 0"/></svg><svg viewBox="0 0 512 512" id="pin" xmlns="http://www.w3.org/2000/svg"><path d="M256 0C161.896 0 85.333 76.563 85.333 170.667c0 28.25 7.063 56.26 20.49 81.104L246.667 506.5c1.875 3.396 5.448 5.5 9.333 5.5s7.458-2.104 9.333-5.5l140.896-254.813c13.375-24.76 20.438-52.771 20.438-81.021C426.667 76.563 350.104 0 256 0zm0 256c-47.052 0-85.333-38.281-85.333-85.333S208.948 85.334 256 85.334s85.333 38.281 85.333 85.333S303.052 256 256 256z"/></svg><svg version="1.0" viewBox="0 0 248 248" id="sll" xmlns="http://www.w3.org/2000/svg"><path d="M103.9 5.1l-1.4 5.1-10.4 3.4c-5.7 1.9-13.6 5.2-17.7 7.4l-7.3 4.1-4.2-2.7-4.2-2.6-13.4 13.5-13.5 13.4 2.6 4.2 2.7 4.2-4.1 7.3c-2.2 4.1-5.5 12-7.4 17.7l-3.4 10.4-5.1 1.4-5.1 1.4v37.4l5.1 1.4 5.1 1.4 3.4 10.4c1.9 5.7 5.2 13.6 7.4 17.7l4.1 7.3-2.6 4.2-2.7 4.2 5.2 5.2 5.2 5.3-13.8.4c-14.6.4-16.6.9-21.7 5.7-4.3 3.9-6 8-6 14.1 0 6.2 1.1 9 5.6 13.8 6 6.3 4.4 6.2 94.3 6.2h81.2l1.6 2.4c7.9 12.2 23.8 18.9 39 16.6 8.7-1.3 18.4-5.8 22.5-10.6 2.9-3.3 3.1-3.9 3.1-11.9V216h-32v-16h32v-8.5c0-8-.2-8.6-3.1-11.9-5.7-6.6-24-13-31.4-11.2-1.4.4-2.5.4-2.5.2 0-.3 1.7-3.3 3.7-6.7 2.1-3.4 5.4-11.2 7.4-17.3l3.7-11.1 5.1-1.4 5.1-1.4V93.3l-5.1-1.4-5.1-1.4-3.4-10.4c-1.9-5.7-5.2-13.6-7.4-17.7l-4.1-7.3 2.7-4.2 2.6-4.2-13.5-13.4-13.4-13.5-4.2 2.6L181 25l-7.3-4c-4-2.1-12-5.5-17.7-7.4l-10.5-3.4-1.4-5.1-1.4-5.1h-37.4l-1.4 5.1zm34.4 7.4l.9 4.1 8.6 2.2c8.9 2.3 22.2 8.1 28.8 12.6l3.7 2.5 4.1-2.4 4.1-2.5 9.2 9.2 9.2 9.2-2.4 4.1-2.4 4.2 2.5 3.7c4.5 6.6 10.3 19.9 12.6 28.8l2.2 8.6 4.1.9 4 .8v27l-4 .8-4.1.9-2.2 8.6c-3.1 12.2-11.1 28.2-17 33.7-2.6 2.5-8 7.7-12.1 11.5l-7.3 7.1-6.1-.3-6.1-.3 4.5-2.9c6.4-4.2 17.4-15.1 22.5-22.3 17.3-24.1 20.7-58.7 8.5-85.8-8.8-19.4-25.2-35.8-44.8-44.7-21.2-9.6-49.4-9.6-70.8.1-19.4 8.8-35.8 25.2-44.7 44.8-9.8 21.6-9.6 49.8.6 71.7 6.5 14.2 16.9 26.8 29.1 35.1l5.8 4-13.4.3-13.3.3-5.8-5.8-5.8-5.7 2.5-4.1 2.4-4.2-2.5-3.7c-4.5-6.6-10.3-19.9-12.6-28.8l-2.2-8.6-4.1-.9-4-.8v-27l4-.8 4.1-.9 2.2-8.6c2.1-8.2 8.6-23.1 13.1-29.8l2-3-2.5-3.8-2.6-3.8 9.5-9.5 9.5-9.5 3.8 2.6 3.8 2.5 3-2c6.7-4.5 21.6-11 29.8-13.1 8.6-2.2 8.7-2.3 9.3-5.8.4-1.9.9-3.8 1.2-4.3.2-.4 6.4-.6 13.6-.5l13.2.3.8 4zm4.6 21.5c23.7 5.7 44.7 23.2 54.6 45.6 6.6 14.9 8.4 35 4.5 51.3-2 8.3-8.2 22.2-12 27.1l-2 2.5V124h-17v-2.8c0-4.9-3.1-56.6-3.6-59-.4-2.1-.8-2.2-11.4-2.2s-11 .1-11.4 2.2c-.5 2.4-3.6 54.1-3.6 59 0 2.6-.3 2.8-4.5 2.8H132v-24h-16V84h-8v16h-8V76h-8v24h-8V84h-8v16H60v30.2c0 30.3 0 30.3-2 27.8-3.9-5-10-18.7-12-27-3.9-16.5-2.1-36.5 4.5-51.4C60.4 57.2 81.1 39.9 105 34c10.6-2.6 26.9-2.6 37.9 0zm19.5 61.7c.3 6.5.9 15.5 1.2 20l.7 8.3h-16.6l.7-8.3c.3-4.5.9-13.5 1.2-20l.7-11.7h11.4l.7 11.7zM124 148.1v40l-14.2-.3c-14.3-.3-14.3-.3-21.9-4.1-4.2-2.1-10.3-5.9-13.5-8.5l-5.9-4.8-.3-31.2L68 108h56v40.1zm56-12.1v4h-48v-8h48v4zm0 22.9v10.9l-3.7 3.3-3.8 3.3-.3-10.2-.3-10.2H140v32h-8v-40h48v10.9zm-16 14v9l-5.3 2.5c-2.9 1.3-6.5 2.8-8 3.1l-2.7.7V164h16v8.9zm64.1 4.6c2.4.9 6.1 2.7 8.2 4.2 3.2 2.2 3.7 3.1 3.7 6.4v3.9h-32v32h32v3.9c0 3.3-.5 4.2-3.8 6.5-6.4 4.4-12.4 5.9-21.5 5.4-6.2-.4-9.4-1.1-13.3-3.1-5.3-2.7-11.2-8.5-13.9-13.6l-1.6-3.1h-84.5c-92.7 0-88.7.3-91.9-6-1.9-3.7-1.9-8.3 0-12 3.2-6.3-.8-6 91.9-6h84.5l1.6-3.1c3.7-7.1 11.6-13.5 19.5-16 4.4-1.3 16.6-1 21.1.6z"/></svg><svg viewBox="0 0 511.98 298.67" id="vk" xmlns="http://www.w3.org/2000/svg"><path d="M424.85 171.26c-8.27-10.45-5.91-15.1 0-24.45.11-.1 68.44-94.53 75.48-126.55 3.5-11.67 0-20.24-16.91-20.24h-56c-14.25 0-20.82 7.36-24.34 15.59 0 0-28.51 68.23-68.83 112.45-13 12.78-19 16.87-26.13 16.87-3.5 0-8.94-4.09-8.94-15.76V20.24c0-14-4-20.24-15.78-20.24h-88c-8.93 0-14.25 6.52-14.25 12.6 0 13.27 20.16 16.32 22.25 53.66v81c0 17.75-3.22 21-10.36 21-19 0-65.22-68.5-92.59-146.9C95 6.16 89.56.02 75.2.02h-56C3.2.02 0 7.38 0 15.61c0 14.55 19 86.89 88.49 182.47 46.29 65.25 111.51 100.58 170.8 100.58 35.64 0 40-7.85 40-21.35 0-62.34-3.23-68.23 14.63-68.23 8.28 0 22.53 4.1 55.81 35.57 38 37.31 44.29 54 65.58 54h56c15.95 0 24-7.85 19.39-23.34-10.7-32.56-82.6-99.57-85.85-104.05z"/></svg><svg data-name="Слой 1" viewBox="0 0 61.23 72.54" id="yt" xmlns="http://www.w3.org/2000/svg"><path d="M60.18 36.73a7.75 7.75 0 00-6.62-6 203.94 203.94 0 00-22.93-.85 204.11 204.11 0 00-22.94.85 7.73 7.73 0 00-6.61 6C.01 41.36 0 46.43 0 51.2s0 9.84 1.07 14.48a7.74 7.74 0 006.61 6 206.33 206.33 0 0022.93.85 206.15 206.15 0 0022.93-.85 7.74 7.74 0 006.62-6c1.07-4.64 1.07-9.7 1.07-14.48s0-9.84-1.05-14.47zm-42.71 3.59H13v23.55H8.89V40.32H4.54v-3.86h12.9zm11.18 23.55h-3.71v-2.23c-1.47 1.69-2.86 2.51-4.22 2.51a2.27 2.27 0 01-2.39-1.52 10.45 10.45 0 01-.32-3V43.45h3.7v15a12.86 12.86 0 000 1.44c.09.58.37.87.86.87.75 0 1.53-.57 2.34-1.73V43.45h3.71zm14.06-6.13a16 16 0 01-.38 4.11 2.92 2.92 0 01-2.95 2.3c-1.32 0-2.59-.73-3.83-2.26v2h-3.7V36.46h3.7v9a5 5 0 013.83-2.21 2.92 2.92 0 012.95 2.3 15.62 15.62 0 01.38 4.11zm14-3.4h-7.4V58c0 1.88.62 2.83 1.89 2.83a1.61 1.61 0 001.66-1.49 24.92 24.92 0 00.08-2.5h3.77v.54c0 1.19 0 2-.08 2.38a5.19 5.19 0 01-.86 2.22 5.12 5.12 0 01-4.48 2.21 5.26 5.26 0 01-4.47-2.09 7.86 7.86 0 01-1.19-4.8v-7.15a8 8 0 011.14-4.82 5.28 5.28 0 014.43-2.09 5.16 5.16 0 014.37 2.09 8.11 8.11 0 011.15 4.82v4.23zm0 0"/><path d="M51.13 46.53c-1.24 0-1.86 1-1.86 2.83v1.89H53v-1.89c0-1.88-.62-2.83-1.84-2.83zm0 0M37.4 46.53a2.67 2.67 0 00-1.85.9v12.45a2.65 2.65 0 001.85.91c1.06 0 1.61-.91 1.61-2.76v-8.71c0-1.84-.55-2.79-1.61-2.79zm0 0M39.46 28c1.37 0 2.79-.83 4.27-2.53v2.25h3.75V7.05h-3.75v15.78c-.82 1.17-1.61 1.75-2.35 1.75-.51 0-.8-.29-.88-.88a7.82 7.82 0 01-.05-1.45V7.05h-3.73v16.33a10.74 10.74 0 00.33 3.07 2.31 2.31 0 002.41 1.53zm0 0M13.43 16.48V27.7h4.14V16.48l5-16.48h-4.19l-2.83 10.88L12.6 0H8.23c.87 2.57 1.79 5.15 2.66 7.72a68.85 68.85 0 012.54 8.76zm0 0M28.12 28a5.1 5.1 0 004.36-2.11 8.06 8.06 0 001.16-4.86v-7.22a8.07 8.07 0 00-1.16-4.87 5.53 5.53 0 00-8.71 0 8 8 0 00-1.17 4.87V21a8 8 0 001.17 4.86 5.11 5.11 0 004.35 2.11zm-1.78-15c0-1.91.58-2.87 1.78-2.87s1.79 1 1.79 2.87v8.68c0 1.91-.58 2.86-1.79 2.86s-1.78-.95-1.78-2.86zm0 0"/></svg></svg>
